<svg width="1020" height="500" viewBox="0 0 1020 500" fill="none" xmlns="http://www.w3.org/2000/svg">
<rect width="1020" height="500" fill="#3E0358"/>
<circle cx="93" cy="409" r="50" fill="#C51AC5"/>
<circle cx="932" cy="61" r="50" fill="#C51AC5"/>
<circle cx="932" cy="418" r="50" fill="#C51AC5"/>
<circle cx="93" cy="63" r="50" fill="#C51AC5"/>
<path d="M483.733 259.625H468.801C468.528 257.693 467.972 255.977 467.131 254.477C466.29 252.955 465.21 251.659 463.892 250.591C462.574 249.523 461.051 248.705 459.324 248.136C457.619 247.568 455.767 247.284 453.767 247.284C450.153 247.284 447.006 248.182 444.324 249.977C441.642 251.75 439.563 254.341 438.085 257.75C436.608 261.136 435.869 265.25 435.869 270.091C435.869 275.068 436.608 279.25 438.085 282.636C439.585 286.023 441.676 288.58 444.358 290.307C447.04 292.034 450.142 292.898 453.665 292.898C455.642 292.898 457.472 292.636 459.153 292.114C460.858 291.591 462.369 290.83 463.688 289.83C465.006 288.807 466.097 287.568 466.96 286.114C467.847 284.659 468.46 283 468.801 281.136L483.733 281.205C483.347 284.409 482.381 287.5 480.835 290.477C479.313 293.432 477.256 296.08 474.665 298.42C472.097 300.739 469.028 302.58 465.46 303.943C461.915 305.284 457.903 305.955 453.426 305.955C447.199 305.955 441.631 304.545 436.722 301.727C431.835 298.909 427.972 294.83 425.131 289.489C422.312 284.148 420.903 277.682 420.903 270.091C420.903 262.477 422.335 256 425.199 250.659C428.063 245.318 431.949 241.25 436.858 238.455C441.767 235.636 447.29 234.227 453.426 234.227C457.472 234.227 461.222 234.795 464.676 235.932C468.153 237.068 471.233 238.727 473.915 240.909C476.597 243.068 478.778 245.716 480.46 248.852C482.165 251.989 483.256 255.58 483.733 259.625ZM517.705 306.023C512.409 306.023 507.83 304.898 503.966 302.648C500.125 300.375 497.159 297.216 495.068 293.17C492.977 289.102 491.932 284.386 491.932 279.023C491.932 273.614 492.977 268.886 495.068 264.841C497.159 260.773 500.125 257.614 503.966 255.364C507.83 253.091 512.409 251.955 517.705 251.955C523 251.955 527.568 253.091 531.409 255.364C535.273 257.614 538.25 260.773 540.341 264.841C542.432 268.886 543.477 273.614 543.477 279.023C543.477 284.386 542.432 289.102 540.341 293.17C538.25 297.216 535.273 300.375 531.409 302.648C527.568 304.898 523 306.023 517.705 306.023ZM517.773 294.773C520.182 294.773 522.193 294.091 523.807 292.727C525.42 291.341 526.636 289.455 527.455 287.068C528.295 284.682 528.716 281.966 528.716 278.92C528.716 275.875 528.295 273.159 527.455 270.773C526.636 268.386 525.42 266.5 523.807 265.114C522.193 263.727 520.182 263.034 517.773 263.034C515.341 263.034 513.295 263.727 511.636 265.114C510 266.5 508.761 268.386 507.92 270.773C507.102 273.159 506.693 275.875 506.693 278.92C506.693 281.966 507.102 284.682 507.92 287.068C508.761 289.455 510 291.341 511.636 292.727C513.295 294.091 515.341 294.773 517.773 294.773ZM589.364 273.023V284.443H562.023V273.023H589.364ZM566.795 252.636V305H552.92V252.636H566.795ZM598.466 252.636V305H584.693V252.636H598.466Z" fill="#00F7FF"/>
<path d="M218.702 192V145.455H228.543V164.659H248.52V145.455H258.338V192H248.52V172.773H228.543V192H218.702ZM276.224 192.659C273.997 192.659 272.012 192.273 270.27 191.5C268.527 190.712 267.149 189.553 266.134 188.023C265.134 186.477 264.634 184.553 264.634 182.25C264.634 180.311 264.99 178.682 265.702 177.364C266.414 176.045 267.384 174.985 268.611 174.182C269.838 173.379 271.232 172.773 272.793 172.364C274.368 171.955 276.02 171.667 277.747 171.5C279.777 171.288 281.414 171.091 282.656 170.909C283.899 170.712 284.8 170.424 285.361 170.045C285.921 169.667 286.202 169.106 286.202 168.364V168.227C286.202 166.788 285.747 165.674 284.838 164.886C283.944 164.098 282.671 163.705 281.02 163.705C279.277 163.705 277.891 164.091 276.861 164.864C275.83 165.621 275.149 166.576 274.815 167.727L265.861 167C266.315 164.879 267.209 163.045 268.543 161.5C269.876 159.939 271.596 158.742 273.702 157.909C275.823 157.061 278.277 156.636 281.065 156.636C283.005 156.636 284.861 156.864 286.634 157.318C288.421 157.773 290.005 158.477 291.384 159.432C292.777 160.386 293.876 161.614 294.679 163.114C295.482 164.598 295.884 166.379 295.884 168.455V192H286.702V187.159H286.429C285.868 188.25 285.118 189.212 284.179 190.045C283.24 190.864 282.111 191.508 280.793 191.977C279.474 192.432 277.952 192.659 276.224 192.659ZM278.997 185.977C280.421 185.977 281.679 185.697 282.77 185.136C283.861 184.561 284.717 183.788 285.338 182.818C285.959 181.848 286.27 180.75 286.27 179.523V175.818C285.967 176.015 285.55 176.197 285.02 176.364C284.505 176.515 283.921 176.659 283.27 176.795C282.618 176.917 281.967 177.03 281.315 177.136C280.664 177.227 280.073 177.311 279.543 177.386C278.406 177.553 277.414 177.818 276.565 178.182C275.717 178.545 275.058 179.038 274.588 179.659C274.118 180.265 273.884 181.023 273.884 181.932C273.884 183.25 274.361 184.258 275.315 184.955C276.285 185.636 277.512 185.977 278.997 185.977ZM333.69 157.091V192H324.509V157.091H333.69ZM329.213 172.409V180.045C328.471 180.379 327.546 180.697 326.44 181C325.334 181.288 324.175 181.523 322.963 181.705C321.751 181.886 320.615 181.977 319.554 181.977C314.539 181.977 310.592 180.947 307.713 178.886C304.834 176.811 303.395 173.5 303.395 168.955V157.045H312.531V168.955C312.531 170.303 312.759 171.371 313.213 172.159C313.683 172.947 314.425 173.515 315.44 173.864C316.471 174.197 317.842 174.364 319.554 174.364C321.145 174.364 322.705 174.197 324.236 173.864C325.766 173.53 327.425 173.045 329.213 172.409ZM350.457 179.227L363.026 157.091H372.571V192H363.344V169.795L350.821 192H341.207V157.091H350.457V179.227ZM404.628 170.682V178.295H386.401V170.682H404.628ZM389.582 157.091V192H380.332V157.091H389.582ZM410.696 157.091V192H401.514V157.091H410.696ZM428.162 192.659C425.935 192.659 423.95 192.273 422.207 191.5C420.465 190.712 419.086 189.553 418.071 188.023C417.071 186.477 416.571 184.553 416.571 182.25C416.571 180.311 416.927 178.682 417.639 177.364C418.351 176.045 419.321 174.985 420.548 174.182C421.776 173.379 423.17 172.773 424.73 172.364C426.306 171.955 427.957 171.667 429.685 171.5C431.715 171.288 433.351 171.091 434.594 170.909C435.836 170.712 436.738 170.424 437.298 170.045C437.859 169.667 438.139 169.106 438.139 168.364V168.227C438.139 166.788 437.685 165.674 436.776 164.886C435.882 164.098 434.609 163.705 432.957 163.705C431.215 163.705 429.829 164.091 428.798 164.864C427.768 165.621 427.086 166.576 426.753 167.727L417.798 167C418.253 164.879 419.147 163.045 420.48 161.5C421.813 159.939 423.533 158.742 425.639 157.909C427.76 157.061 430.215 156.636 433.003 156.636C434.942 156.636 436.798 156.864 438.571 157.318C440.359 157.773 441.942 158.477 443.321 159.432C444.715 160.386 445.813 161.614 446.616 163.114C447.42 164.598 447.821 166.379 447.821 168.455V192H438.639V187.159H438.366C437.806 188.25 437.056 189.212 436.116 190.045C435.177 190.864 434.048 191.508 432.73 191.977C431.412 192.432 429.889 192.659 428.162 192.659ZM430.935 185.977C432.359 185.977 433.616 185.697 434.707 185.136C435.798 184.561 436.654 183.788 437.276 182.818C437.897 181.848 438.207 180.75 438.207 179.523V175.818C437.904 176.015 437.488 176.197 436.957 176.364C436.442 176.515 435.859 176.659 435.207 176.795C434.556 176.917 433.904 177.03 433.253 177.136C432.601 177.227 432.01 177.311 431.48 177.386C430.344 177.553 429.351 177.818 428.503 178.182C427.654 178.545 426.995 179.038 426.526 179.659C426.056 180.265 425.821 181.023 425.821 181.932C425.821 183.25 426.298 184.258 427.253 184.955C428.223 185.636 429.45 185.977 430.935 185.977ZM464.582 179.227L477.151 157.091H486.696V192H477.469V169.795L464.946 192H455.332V157.091H464.582V179.227ZM475.491 144.909H482.241C482.226 147.667 481.204 149.886 479.173 151.568C477.158 153.25 474.431 154.091 470.991 154.091C467.537 154.091 464.802 153.25 462.787 151.568C460.772 149.886 459.764 147.667 459.764 144.909H466.469C466.454 145.955 466.787 146.894 467.469 147.727C468.166 148.561 469.34 148.977 470.991 148.977C472.598 148.977 473.749 148.568 474.446 147.75C475.143 146.932 475.491 145.985 475.491 144.909ZM490.952 164.705V157.091H522.588V164.705H511.338V192H502.111V164.705H490.952ZM543.116 192.682C539.526 192.682 536.435 191.955 533.844 190.5C531.268 189.03 529.283 186.955 527.889 184.273C526.495 181.576 525.798 178.386 525.798 174.705C525.798 171.114 526.495 167.962 527.889 165.25C529.283 162.538 531.245 160.424 533.776 158.909C536.321 157.394 539.306 156.636 542.73 156.636C545.033 156.636 547.177 157.008 549.162 157.75C551.162 158.477 552.904 159.576 554.389 161.045C555.889 162.515 557.056 164.364 557.889 166.591C558.723 168.803 559.139 171.394 559.139 174.364V177.023H529.662V171.023H550.026C550.026 169.629 549.723 168.394 549.116 167.318C548.51 166.242 547.67 165.402 546.594 164.795C545.533 164.174 544.298 163.864 542.889 163.864C541.42 163.864 540.116 164.205 538.98 164.886C537.859 165.553 536.98 166.455 536.344 167.591C535.707 168.712 535.382 169.962 535.366 171.341V177.045C535.366 178.773 535.685 180.265 536.321 181.523C536.973 182.78 537.889 183.75 539.071 184.432C540.253 185.114 541.654 185.455 543.276 185.455C544.351 185.455 545.336 185.303 546.23 185C547.124 184.697 547.889 184.242 548.526 183.636C549.162 183.03 549.647 182.288 549.98 181.409L558.935 182C558.48 184.152 557.548 186.03 556.139 187.636C554.745 189.227 552.942 190.47 550.73 191.364C548.533 192.242 545.995 192.682 543.116 192.682ZM589.52 179.227L602.088 157.091H611.634V192H602.406V169.795L589.884 192H580.27V157.091H589.52V179.227ZM617.599 182.114H626.986C627.031 183.265 627.546 184.174 628.531 184.841C629.516 185.508 630.789 185.841 632.349 185.841C633.925 185.841 635.251 185.477 636.327 184.75C637.402 184.008 637.94 182.947 637.94 181.568C637.94 180.72 637.728 179.985 637.304 179.364C636.88 178.727 636.289 178.227 635.531 177.864C634.774 177.5 633.895 177.318 632.895 177.318H627.872V170.977H632.895C634.395 170.977 635.546 170.629 636.349 169.932C637.168 169.235 637.577 168.364 637.577 167.318C637.577 166.136 637.152 165.189 636.304 164.477C635.471 163.75 634.342 163.386 632.918 163.386C631.478 163.386 630.281 163.712 629.327 164.364C628.387 165 627.902 165.833 627.872 166.864H618.531C618.562 164.773 619.19 162.962 620.418 161.432C621.66 159.902 623.327 158.72 625.418 157.886C627.524 157.053 629.88 156.636 632.486 156.636C635.334 156.636 637.789 157.038 639.849 157.841C641.925 158.629 643.516 159.758 644.622 161.227C645.743 162.697 646.304 164.447 646.304 166.477C646.304 168.326 645.698 169.871 644.486 171.114C643.274 172.356 641.577 173.242 639.395 173.773V174.136C640.834 174.227 642.137 174.614 643.304 175.295C644.471 175.977 645.402 176.917 646.099 178.114C646.796 179.295 647.145 180.697 647.145 182.318C647.145 184.485 646.509 186.341 645.236 187.886C643.978 189.432 642.236 190.621 640.009 191.455C637.796 192.273 635.259 192.682 632.395 192.682C629.607 192.682 627.107 192.28 624.895 191.477C622.698 190.659 620.948 189.462 619.645 187.886C618.357 186.311 617.675 184.386 617.599 182.114ZM659.06 205.091C657.832 205.091 656.681 204.992 655.605 204.795C654.545 204.614 653.666 204.379 652.969 204.091L655.151 196.864C656.287 197.212 657.31 197.402 658.219 197.432C659.143 197.462 659.938 197.25 660.605 196.795C661.287 196.341 661.84 195.568 662.264 194.477L662.832 193L650.31 157.091H660.491L667.719 182.727H668.082L675.378 157.091H685.628L672.06 195.773C671.408 197.652 670.522 199.288 669.401 200.682C668.295 202.091 666.893 203.174 665.196 203.932C663.499 204.705 661.454 205.091 659.06 205.091ZM719.94 157.091V192H710.759V157.091H719.94ZM715.463 172.409V180.045C714.721 180.379 713.796 180.697 712.69 181C711.584 181.288 710.425 181.523 709.213 181.705C708.001 181.886 706.865 181.977 705.804 181.977C700.789 181.977 696.842 180.947 693.963 178.886C691.084 176.811 689.645 173.5 689.645 168.955V157.045H698.781V168.955C698.781 170.303 699.009 171.371 699.463 172.159C699.933 172.947 700.675 173.515 701.69 173.864C702.721 174.197 704.092 174.364 705.804 174.364C707.395 174.364 708.955 174.197 710.486 173.864C712.016 173.53 713.675 173.045 715.463 172.409ZM737.412 192.659C735.185 192.659 733.2 192.273 731.457 191.5C729.715 190.712 728.336 189.553 727.321 188.023C726.321 186.477 725.821 184.553 725.821 182.25C725.821 180.311 726.177 178.682 726.889 177.364C727.601 176.045 728.571 174.985 729.798 174.182C731.026 173.379 732.42 172.773 733.98 172.364C735.556 171.955 737.207 171.667 738.935 171.5C740.965 171.288 742.601 171.091 743.844 170.909C745.086 170.712 745.988 170.424 746.548 170.045C747.109 169.667 747.389 169.106 747.389 168.364V168.227C747.389 166.788 746.935 165.674 746.026 164.886C745.132 164.098 743.859 163.705 742.207 163.705C740.465 163.705 739.079 164.091 738.048 164.864C737.018 165.621 736.336 166.576 736.003 167.727L727.048 167C727.503 164.879 728.397 163.045 729.73 161.5C731.063 159.939 732.783 158.742 734.889 157.909C737.01 157.061 739.465 156.636 742.253 156.636C744.192 156.636 746.048 156.864 747.821 157.318C749.609 157.773 751.192 158.477 752.571 159.432C753.965 160.386 755.063 161.614 755.866 163.114C756.67 164.598 757.071 166.379 757.071 168.455V192H747.889V187.159H747.616C747.056 188.25 746.306 189.212 745.366 190.045C744.427 190.864 743.298 191.508 741.98 191.977C740.662 192.432 739.139 192.659 737.412 192.659ZM740.185 185.977C741.609 185.977 742.866 185.697 743.957 185.136C745.048 184.561 745.904 183.788 746.526 182.818C747.147 181.848 747.457 180.75 747.457 179.523V175.818C747.154 176.015 746.738 176.197 746.207 176.364C745.692 176.515 745.109 176.659 744.457 176.795C743.806 176.917 743.154 177.03 742.503 177.136C741.851 177.227 741.26 177.311 740.73 177.386C739.594 177.553 738.601 177.818 737.753 178.182C736.904 178.545 736.245 179.038 735.776 179.659C735.306 180.265 735.071 181.023 735.071 181.932C735.071 183.25 735.548 184.258 736.503 184.955C737.473 185.636 738.7 185.977 740.185 185.977ZM761.077 164.705V157.091H792.713V164.705H781.463V192H772.236V164.705H761.077ZM804.651 167.818H815.082C819.704 167.818 823.31 168.924 825.901 171.136C828.491 173.333 829.787 176.273 829.787 179.955C829.787 182.348 829.204 184.455 828.037 186.273C826.87 188.076 825.188 189.485 822.991 190.5C820.795 191.5 818.158 192 815.082 192H798.582V157.091H807.832V184.386H815.082C816.704 184.386 818.037 183.977 819.082 183.159C820.128 182.341 820.658 181.295 820.673 180.023C820.658 178.674 820.128 177.576 819.082 176.727C818.037 175.864 816.704 175.432 815.082 175.432H804.651V167.818Z" fill="white"/>
<path d="M320.898 376V349.818H332.062C335.29 349.818 337.841 350.432 339.716 351.659C341.591 352.886 342.528 354.631 342.528 356.892C342.528 358.312 342 359.494 340.943 360.438C339.886 361.381 338.42 362.017 336.545 362.347C338.114 362.46 339.449 362.818 340.551 363.42C341.665 364.011 342.511 364.778 343.091 365.722C343.682 366.665 343.977 367.71 343.977 368.858C343.977 370.347 343.58 371.625 342.784 372.693C342 373.761 340.847 374.58 339.324 375.148C337.813 375.716 335.966 376 333.784 376H320.898ZM327.665 370.562H333.784C334.795 370.562 335.585 370.324 336.153 369.847C336.733 369.358 337.023 368.693 337.023 367.852C337.023 366.92 336.733 366.187 336.153 365.653C335.585 365.119 334.795 364.852 333.784 364.852H327.665V370.562ZM327.665 360.591H332.216C332.943 360.591 333.563 360.489 334.074 360.284C334.597 360.068 334.994 359.761 335.267 359.364C335.551 358.966 335.693 358.494 335.693 357.949C335.693 357.142 335.369 356.511 334.722 356.057C334.074 355.602 333.188 355.375 332.062 355.375H327.665V360.591ZM364.031 367.972L371.122 349.818H376.645L366.435 376H361.611L351.639 349.818H357.145L364.031 367.972ZM355.491 349.818V376H348.554V349.818H355.491ZM372.929 376V349.818H379.781V376H372.929ZM397.33 376.511C394.636 376.511 392.318 375.966 390.375 374.875C388.443 373.773 386.955 372.216 385.909 370.205C384.864 368.182 384.341 365.79 384.341 363.028C384.341 360.335 384.864 357.972 385.909 355.938C386.955 353.903 388.426 352.318 390.324 351.182C392.233 350.045 394.472 349.477 397.04 349.477C398.767 349.477 400.375 349.756 401.864 350.312C403.364 350.858 404.67 351.682 405.784 352.784C406.909 353.886 407.784 355.273 408.409 356.943C409.034 358.602 409.347 360.545 409.347 362.773V364.767H387.239V360.267H402.511C402.511 359.222 402.284 358.295 401.83 357.489C401.375 356.682 400.744 356.051 399.938 355.597C399.142 355.131 398.216 354.898 397.159 354.898C396.057 354.898 395.08 355.153 394.227 355.665C393.386 356.165 392.727 356.841 392.25 357.693C391.773 358.534 391.528 359.472 391.517 360.506V364.784C391.517 366.08 391.756 367.199 392.233 368.142C392.722 369.085 393.409 369.812 394.295 370.324C395.182 370.835 396.233 371.091 397.449 371.091C398.256 371.091 398.994 370.977 399.665 370.75C400.335 370.523 400.909 370.182 401.386 369.727C401.864 369.273 402.227 368.716 402.477 368.057L409.193 368.5C408.852 370.114 408.153 371.523 407.097 372.727C406.051 373.92 404.699 374.852 403.04 375.523C401.392 376.182 399.489 376.511 397.33 376.511ZM425.915 376.511C423.233 376.511 420.926 375.943 418.994 374.807C417.074 373.659 415.597 372.068 414.562 370.034C413.54 368 413.028 365.659 413.028 363.011C413.028 360.33 413.545 357.977 414.58 355.955C415.625 353.92 417.108 352.335 419.028 351.199C420.949 350.051 423.233 349.477 425.881 349.477C428.165 349.477 430.165 349.892 431.881 350.722C433.597 351.551 434.955 352.716 435.955 354.216C436.955 355.716 437.506 357.477 437.608 359.5H430.756C430.563 358.193 430.051 357.142 429.222 356.347C428.403 355.54 427.33 355.136 426 355.136C424.875 355.136 423.892 355.443 423.051 356.057C422.222 356.659 421.574 357.54 421.108 358.699C420.642 359.858 420.409 361.261 420.409 362.909C420.409 364.58 420.636 366 421.091 367.17C421.557 368.341 422.21 369.233 423.051 369.847C423.892 370.46 424.875 370.767 426 370.767C426.83 370.767 427.574 370.597 428.233 370.256C428.903 369.915 429.455 369.42 429.886 368.773C430.33 368.114 430.619 367.324 430.756 366.403H437.608C437.494 368.403 436.949 370.165 435.972 371.688C435.006 373.199 433.67 374.381 431.966 375.233C430.261 376.085 428.244 376.511 425.915 376.511ZM440.472 355.528V349.818H464.199V355.528H455.761V376H448.841V355.528H440.472ZM479.595 376.511C476.902 376.511 474.584 375.966 472.641 374.875C470.709 373.773 469.22 372.216 468.175 370.205C467.129 368.182 466.607 365.79 466.607 363.028C466.607 360.335 467.129 357.972 468.175 355.938C469.22 353.903 470.692 352.318 472.589 351.182C474.499 350.045 476.737 349.477 479.305 349.477C481.033 349.477 482.641 349.756 484.129 350.312C485.629 350.858 486.936 351.682 488.05 352.784C489.175 353.886 490.05 355.273 490.675 356.943C491.3 358.602 491.612 360.545 491.612 362.773V364.767H469.504V360.267H484.777C484.777 359.222 484.55 358.295 484.095 357.489C483.641 356.682 483.01 356.051 482.203 355.597C481.408 355.131 480.482 354.898 479.425 354.898C478.322 354.898 477.345 355.153 476.493 355.665C475.652 356.165 474.993 356.841 474.516 357.693C474.038 358.534 473.794 359.472 473.783 360.506V364.784C473.783 366.08 474.021 367.199 474.499 368.142C474.987 369.085 475.675 369.812 476.561 370.324C477.447 370.835 478.499 371.091 479.714 371.091C480.521 371.091 481.26 370.977 481.93 370.75C482.601 370.523 483.175 370.182 483.652 369.727C484.129 369.273 484.493 368.716 484.743 368.057L491.459 368.5C491.118 370.114 490.419 371.523 489.362 372.727C488.317 373.92 486.964 374.852 485.305 375.523C483.658 376.182 481.754 376.511 479.595 376.511ZM519.29 376.511C516.608 376.511 514.301 375.943 512.369 374.807C510.449 373.659 508.972 372.068 507.938 370.034C506.915 368 506.403 365.659 506.403 363.011C506.403 360.33 506.92 357.977 507.955 355.955C509 353.92 510.483 352.335 512.403 351.199C514.324 350.051 516.608 349.477 519.256 349.477C521.54 349.477 523.54 349.892 525.256 350.722C526.972 351.551 528.33 352.716 529.33 354.216C530.33 355.716 530.881 357.477 530.983 359.5H524.131C523.938 358.193 523.426 357.142 522.597 356.347C521.778 355.54 520.705 355.136 519.375 355.136C518.25 355.136 517.267 355.443 516.426 356.057C515.597 356.659 514.949 357.54 514.483 358.699C514.017 359.858 513.784 361.261 513.784 362.909C513.784 364.58 514.011 366 514.466 367.17C514.932 368.341 515.585 369.233 516.426 369.847C517.267 370.46 518.25 370.767 519.375 370.767C520.205 370.767 520.949 370.597 521.608 370.256C522.278 369.915 522.83 369.42 523.261 368.773C523.705 368.114 523.994 367.324 524.131 366.403H530.983C530.869 368.403 530.324 370.165 529.347 371.688C528.381 373.199 527.045 374.381 525.341 375.233C523.636 376.085 521.619 376.511 519.29 376.511ZM552.895 376H544.986L557.037 341.091H566.548L578.582 376H570.673L561.929 349.068H561.656L552.895 376ZM552.401 362.278H571.082V368.04H552.401V362.278ZM600.925 351.131C600.788 349.756 600.203 348.687 599.169 347.926C598.135 347.165 596.732 346.784 594.959 346.784C593.754 346.784 592.737 346.955 591.908 347.295C591.078 347.625 590.442 348.085 589.999 348.676C589.567 349.267 589.351 349.938 589.351 350.688C589.328 351.312 589.459 351.858 589.743 352.324C590.038 352.79 590.442 353.193 590.953 353.534C591.464 353.864 592.055 354.153 592.726 354.403C593.396 354.642 594.112 354.847 594.874 355.017L598.01 355.767C599.533 356.108 600.93 356.562 602.203 357.131C603.476 357.699 604.578 358.398 605.51 359.227C606.442 360.057 607.163 361.034 607.675 362.159C608.197 363.284 608.464 364.574 608.476 366.028C608.464 368.165 607.919 370.017 606.839 371.585C605.771 373.142 604.226 374.352 602.203 375.216C600.192 376.068 597.766 376.494 594.925 376.494C592.107 376.494 589.652 376.062 587.561 375.199C585.482 374.335 583.857 373.057 582.686 371.364C581.527 369.659 580.919 367.551 580.862 365.04H588.004C588.084 366.21 588.419 367.187 589.01 367.972C589.612 368.744 590.413 369.33 591.413 369.727C592.425 370.114 593.567 370.307 594.839 370.307C596.089 370.307 597.175 370.125 598.095 369.761C599.027 369.398 599.749 368.892 600.26 368.244C600.771 367.597 601.027 366.852 601.027 366.011C601.027 365.227 600.794 364.568 600.328 364.034C599.874 363.5 599.203 363.045 598.317 362.67C597.442 362.295 596.368 361.955 595.095 361.648L591.294 360.693C588.351 359.977 586.027 358.858 584.322 357.335C582.618 355.812 581.771 353.761 581.783 351.182C581.771 349.068 582.334 347.222 583.47 345.642C584.618 344.062 586.192 342.83 588.192 341.943C590.192 341.057 592.464 340.614 595.01 340.614C597.601 340.614 599.862 341.057 601.794 341.943C603.737 342.83 605.249 344.062 606.328 345.642C607.408 347.222 607.964 349.051 607.999 351.131H600.925ZM613.44 376V341.091H620.821V369.915H635.787V376H613.44ZM640.675 376V341.091H664.197V347.176H648.055V355.494H662.987V361.58H648.055V369.915H664.266V376H640.675ZM670.065 376V341.091H693.588V347.176H677.446V355.494H692.378V361.58H677.446V369.915H693.656V376H670.065ZM699.456 376V341.091H713.229C715.876 341.091 718.132 341.597 719.996 342.608C721.859 343.608 723.28 345 724.257 346.784C725.246 348.557 725.74 350.602 725.74 352.92C725.74 355.239 725.24 357.284 724.24 359.057C723.24 360.83 721.791 362.21 719.893 363.199C718.007 364.187 715.723 364.682 713.041 364.682H704.263V358.767H711.848C713.268 358.767 714.439 358.523 715.359 358.034C716.291 357.534 716.984 356.847 717.439 355.972C717.905 355.085 718.138 354.068 718.138 352.92C718.138 351.761 717.905 350.75 717.439 349.886C716.984 349.011 716.291 348.335 715.359 347.858C714.428 347.369 713.246 347.125 711.814 347.125H706.837V376H699.456Z" fill="white"/>
</svg>
